#N canvas 758 23 922 363 10;
#X obj 6 3 cnv 15 900 355 empty empty empty 20 12 0 14 -191407 -66577
0;
#X obj 192 198 ui.keyboard @size 704 158 @receive "nothafdadsfadf"
@send "gui-keyoard" @pinned 0 @background_color 0.93 0.93 0.93 1 @border_color
0.6 0.6 0.6 1 @label_color 0.992034 0.00395233 0.023714 1 @active_color
0.284567 0.3399 0.636324 1 @fontname "Helvetica" @fontweight "normal"
@fontslant "roman" @fontsize 11 @label "(null)" @label_inner 0 @label_side
"top" @label_align "left" @label_valign "top" @label_margins 0 0 @keys
37 @shift 36;
#X obj 251 321 s gui-keyboard;
#X obj 627 26 cnv 15 210 80 empty empty empty 20 12 0 14 -99865 -66577
0;
#X obj 640 48 moonlib/mknob 35 100 0 1 0 0 attack-vca init-attack-vca
ATTACK 0 48 0 10 -75113 -1 -262144 0 1;
#X obj 690 48 moonlib/mknob 35 100 0 1 0 0 decay-vca init-decay-vca
DECAY 3 48 0 10 -75113 -1 -262144 0 1;
#X obj 740 48 moonlib/mknob 35 100 0 1 0 0 sustain-vca init-sustain-vca
SUSTAIN -4 48 0 10 -75113 -1 -262144 9900 1;
#X obj 790 48 moonlib/mknob 35 100 0 1 0 0 release-vca init-release-vca
RELEASE -2 48 0 10 -75113 -1 -262144 0 1;
#X obj 627 110 cnv 15 210 80 empty empty empty 20 12 0 14 -99865 -66577
0;
#X obj 637 133 moonlib/mknob 35 100 0 1 0 0 attack-vcf init-attack-vcf
ATTACK 0 48 0 10 -75113 -1 -262144 0 1;
#X obj 687 133 moonlib/mknob 35 100 0 1 0 0 decay-vcf init-decay-vcf
DECAY 3 48 0 10 -75113 -1 -262144 0 1;
#X obj 737 133 moonlib/mknob 35 100 0 1 0 0 sustain-vcf init-sustain-vcf
SUSTAIN -4 48 0 10 -75113 -1 -262144 9900 1;
#X obj 787 133 moonlib/mknob 35 100 0 1 0 0 release-vcf init-release-vcf
RELEASE -2 48 0 10 -75113 -1 -262144 0 1;
#X obj 627 110 cnv 15 45 15 empty empty FILTER 2 8 0 12 -262144 -99865
0;
#X obj 627 26 cnv 15 45 15 empty empty VOLUME 2 8 0 12 -262144 -99865
0;
#X obj 492 26 cnv 15 130 164 empty empty empty 20 12 0 14 -99865 -66577
0;
#X obj 502 49 moonlib/mknob 35 100 0 1 0 0 cutoff-vcf init-cutoff-vcf
CUTOFF 0 48 0 10 -75113 -1 -262144 4950 1;
#X obj 572 49 moonlib/mknob 35 100 0 1 0 0 resonance-vcf init-resonance-vcf
RESONANCE -8 48 0 10 -75113 -1 -262144 3960 1;
#X obj 537 119 moonlib/mknob 35 100 -1 1 0 0 eg init-eg EG 12 48 0
10 -75113 -1 -262144 4950 1;
#X obj 627 6 cnv 15 210 15 empty empty ENVELOPE_GENERATORS 40 8 0 12
-262144 -99865 0;
#X obj 492 6 cnv 15 130 15 empty empty FILTER 45 8 0 12 -262144 -99865
0;
#X obj 842 26 cnv 15 55 164 empty empty empty 20 12 0 14 -99865 -66577
0;
#X obj 853 48 moonlib/mknob 35 100 0 1 0 0 volume init-volume VOLUME
0 48 0 10 -75113 -1 -262144 8415 1;
#X obj 842 6 cnv 15 55 15 empty empty OUTPUT 7 8 0 12 -262144 -99865
0;
#X obj 853 117 tgl 35 0 output init-output ON/OFF 0 48 0 10 -75113
-258113 -262144 0 1;
#X obj 141 26 cnv 15 130 164 empty empty empty 20 12 0 14 -99865 -66577
0;
#X obj 141 6 cnv 15 130 15 empty empty MODULATION 30 8 0 12 -262144
-99865 0;
#X obj 277 26 cnv 15 210 164 empty empty empty 20 12 0 14 -99865 -66577
0;
#X obj 277 6 cnv 15 210 15 empty empty OSCILLATORS 65 8 0 12 -262144
-99865 0;
#X obj 18 194 cnv 15 880 164 empty empty empty 20 12 0 14 -1 -66577
0;
#X obj 18 6 cnv 15 117 90 empty empty empty 4 15 0 20 -262144 -99865
0;
#X obj 362 59 vradio 20 1 0 5 select-waveform init-select-waveform
empty 0 -8 0 10 -75113 -258113 -1 1;
#X obj 387 67 cnv 15 10 10 empty empty NOISE 0 0 0 10 -99865 -262144
0;
#X obj 387 87 cnv 15 10 10 empty empty TRIANGLE 0 0 0 10 -99865 -262144
0;
#X obj 387 107 cnv 15 10 10 empty empty SQUARE 0 0 0 10 -99865 -262144
0;
#X obj 387 128 cnv 15 10 10 empty empty SAW 0 0 0 10 -99865 -262144
0;
#X obj 387 149 cnv 15 10 10 empty empty SHARK 0 0 0 10 -99865 -262144
0;
#N canvas 1211 412 469 406 Moog 0;
#X obj 246 228 tgl 15 0 empty empty empty 17 7 0 10 -262144 -1 -1 1
1;
#X msg 246 251 \; pd dsp \$1;
#X text 268 227 Audio on/off;
#N canvas 0 158 1034 786 curves 0;
#N canvas 0 23 589 593 discarded-curves 0;
#N canvas 0 22 450 278 (subpatch) 0;
#X array EG 14 float 1;
#A 0 0 0 0 0 0 0 0 0 0 0 0 0 0 0;
#X coords 0 -2700 13 18000 200 140 1 0 0;
#X restore 44 145 graph;
#N canvas 0 22 450 278 (subpatch) 0;
#X array resonance 100 float 3;
#A 0 0 0 0 0 0 0 0 0 0 0 0 0 0 0 0 0 0 0 0 0 0 0 0 0 0 0 0 0 0 0 0
0 0 0 0 0 0 0 0 0 0 0 0 0 0 0 0 0 0 0 0 0 0 0 0 0 0 0 0 0 0 0 0 0 0
0 0 0 0 0 0 0 0 0 0 0 0 0 0 0 0 0 0 0 0 0 0 0 0 0 0 0 0 0 0 0 0 0 0
0;
#X coords 0 1 100 -1 200 140 1;
#X restore 294 149 graph;
#X msg 42 25 \; resonance-vcf -35 -35 -35 -34 -34 -33 -33 -32 -30 -30
-30 -29 -28 -28;
#X msg 41 76 \; EG -2627 -2627 -2627 -2584 -2584 -2197 -1423 0 2067
7237 15787 17787 17787;
#N canvas 0 23 450 278 (subpatch) 0;
#X array map-sustain-vcf 13 float 1;
#A 0 0 0 0.01 0.02 0 0.094 0 0.27 0.4 0.59 0.8 1 1;
#X coords 0 12 12 0 200 140 1 0 0;
#X restore 54 418 graph;
#N canvas 0 23 450 278 (subpatch) 0;
#X array map-sustain-vca 13 float 5;
#A 0 0 4.27 2.001 1.66 1.54 1.38 1.31 1.21 1.13 1.06 1.048 1 1;
#X coords 0 12 12 0 200 140 1 0 0;
#X restore 274 417 graph;
#X msg 45 314 \; map-sustain-vca 0 0 4.27 2.001 1.66 1.54 1.38 1.31
1.21 1.13 1.06 1.048 1 1, f 82;
#X msg 44 352 \; map-sustain-vcf 0 0 0 0.01 0.02 0 0.094 0 0.27 0.4
0.59 0.8 1 1, f 82;
#X restore 45 60 pd discarded-curves;
#N canvas 0 23 450 278 (subpatch) 0;
#X array attack-vcf 13 float 1;
#A 0 0 0 0.096 0.176 0.197 0.174 0.17 0.33 0.722 1.811 4.55 12.027
12.027;
#X coords 0 12 12 0 200 140 1 0 0;
#X restore 46 306 graph;
#N canvas 0 23 450 278 (subpatch) 0;
#X array decay-vcf 13 float 1;
#A 0 0 0 0.065 0.074 0.115 0.151 0.252 1.036 1.741 3.88 6.745 13.531
13.531;
#X coords 0 14 12 0 200 140 1 0 0;
#X restore 287 307 graph;
#N canvas 0 23 450 278 (subpatch) 0;
#X array release-vcf 13 float 1;
#A 0 0 0 0.004 0.013 0.038 0.082 0.32 0.524 1.383 3.473 7.322 13.478
13.478;
#X coords 0 14 12 0 200 140 1 0 0;
#X restore 787 305 graph;
#N canvas 0 23 450 278 (subpatch) 0;
#X array attack-vca 13 float 5;
#A 0 0 0 0.06 0.069 0.034 0.11 0.198 0.39 0.911 2.246 5.479 17.763
17.763;
#X coords 0 18 12 0 200 140 1 0 0;
#X restore 47 563 graph;
#N canvas 0 23 450 278 (subpatch) 0;
#X array decay-vca 13 float 1;
#A 0 0 0.03 0.066 0.085 0.143 0.238 0.577 1.231 2.755 5.732 10.356
17.461 17.461;
#X coords 0 18 12 0 200 140 1 0 0;
#X restore 288 563 graph;
#N canvas 0 23 450 278 (subpatch) 0;
#X array cutoff-vcf 13 float 1;
#A 0 0 16 22 32 86 183 398 807 1766 3768 7300 13986 13986;
#X coords 0 14000 12 0 200 140 1 0 0;
#X restore 43 141 graph;
#N canvas 456 42 816 533 curves-data 0;
#X obj 41 69 loadbang;
#X msg 181 108 \; attack-vca 0 0 0 0.06 0.069 0.034 0.11 0.198 0.39
0.911 2.246 5.479 17.763 17.763, f 88;
#X msg 182 154 \; decay-vca 0 0 0.03 0.066 0.085 0.143 0.238 0.577
1.231 2.755 5.732 10.356 17.461 17.461, f 92;
#X msg 123 252 \; attack-vcf 0 0 0 0.096 0.176 0.197 0.174 0.17 0.33
0.722 1.811 4.55 12.027 12.027, f 86;
#X msg 118 287 \; decay-vcf 0 0 0 0.065 0.074 0.115 0.151 0.252 1.036
1.741 3.88 6.745 13.531 13.531, f 89;
#X msg 113 318 \; release-vcf 0 0 0 0.004 0.013 0.038 0.082 0.32 0.524
1.383 3.473 7.322 13.478 13.478, f 89;
#X msg 72 432 \; cutoff-vcf 0 0 16 22 32 86 183 398 807 1766 3768 7300
13986 13986, f 70;
#X msg 167 187 \; release-vca 0 0 0.148 0.163 0.208 0.216 0.324 0.625
1.5514 3.362 7.0574 10.478 19.934 19.934, f 82;
#X connect 0 0 1 0;
#X connect 0 0 2 0;
#X connect 0 0 7 0;
#X connect 0 0 4 0;
#X connect 0 0 5 0;
#X connect 0 0 6 0;
#X connect 0 0 3 0;
#X restore 45 84 pd curves-data;
#N canvas 0 23 450 278 (subpatch) 0;
#X array release-vca 13 float 1;
#A 0 0 0.148 0.163 0.208 0.216 0.324 0.625 1.5514 3.362 7.0574 10.478
19.934 19.934;
#X coords 0 20 12 0 200 140 1 0 0;
#X restore 793 565 graph;
#X restore 296 94 pd curves;
#N canvas 377 177 450 300 midi-file 0;
#X obj 180 161 seq;
#X obj 178 57 loadbang;
#X obj 179 191 midiparse;
#X msg 92 63 stop;
#X msg 54 63 bang;
#X msg 132 63 pause;
#X text 92 18 it can also be used to play a midifile;
#X obj 180 213 unpack;
#X floatatom 137 250 5 0 0 0 - - -;
#X floatatom 220 236 5 0 0 0 - - -;
#X floatatom 256 217 5 0 0 0 - - -;
#X obj 217 276 s trigger-midi;
#X obj 102 271 s note-midi;
#X msg 220 144 read midi2.mid;
#X obj 27 93 s rec;
#X obj 79 183 s recstop;
#X msg 27 16 record;
#X msg 79 161 stop record;
#X obj 139 230 - 12;
#X msg 197 82 read c2.mid;
#X msg 209 103 read c3.mid;
#X msg 216 123 read c4.mid;
#X connect 0 0 2 0;
#X connect 2 0 7 0;
#X connect 2 6 10 0;
#X connect 4 0 0 0;
#X connect 5 0 0 0;
#X connect 7 0 18 0;
#X connect 7 1 9 0;
#X connect 8 0 12 0;
#X connect 9 0 11 0;
#X connect 13 0 0 0;
#X connect 16 0 14 0;
#X connect 16 0 4 0;
#X connect 17 0 15 0;
#X connect 18 0 8 0;
#X connect 19 0 0 0;
#X connect 20 0 0 0;
#X connect 21 0 0 0;
#X restore 295 71 pd midi-file;
#N canvas 158 23 1522 942 signal-flow 0;
#X obj 955 -85 txt2array;
#X obj 953 -62 table triangle 100;
#X obj 953 -42 table saw 100;
#X obj 953 -22 table shark 100;
#X obj 953 -2 table square 100;
#X obj 955 -151 loadbang;
#X msg 41 158 set triangle;
#X msg 52 225 set square;
#X msg 954 58 \; triangle;
#X msg 46 181 set shark;
#X obj -2 253 tabosc~ triangle;
#X obj 181 369 number~;
#X obj 42 682 +~, f 23;
#X msg 50 203 set saw;
#X obj 166 321 else/adsr~ 10 400 20 1000, f 103;
#X obj 166 347 pow~ 2;
#X obj 165 294 r trigger;
#X obj 341 981 number~;
#X obj 323 948 pow~ 2;
#X obj 323 903 r trigger;
#X obj 323 925 else/adsr~ 10 400 20 1000, f 99;
#X obj -1 984 *~, f 55;
#X obj 176 563 *~, f 25;
#X obj 320 538 line~;
#X text 347 395 BEWARE: RANGE -1 TO 1;
#X obj 181 590 number~;
#X floatatom 319 474 5 -1 1 0 - - -;
#X obj 319 495 abs;
#X obj 292 453 t f f;
#X obj 176 526 expr~ if($f2 <= 0 \, abs($v1-1) \, $v1), f 20;
#X obj 292 420 expr if($f1 < 0.03 \, if($f1 > -0.03 \, 0 \, $f1) \,
$f1), f 26;
#X text 369 515 = Maximum Cutoff Frecuency of the VCF;
#X obj 319 516 * 13986;
#X obj -16 1245 dac~;
#X obj 14 1014 r volume;
#X obj 14 1058 line~;
#X msg 14 1036 \$1 10;
#X obj -1 1101 *~;
#X obj 14 1081 *~, f 11;
#X obj 77 1058 line~;
#X msg 77 1036 \$1 10;
#X obj 77 1014 r output;
#X obj 28 1206 number~;
#X obj -1 1122 else/brickwall~;
#X obj 0 1164 expr~ atan($v1);
#X obj 0 1186 *~ 0.63662;
#X obj 32 91 r select-waveform;
#X obj 32 111 sel 0 1 2 3 4;
#X obj 780 222 + 1;
#X obj 780 284 * 1000;
#X floatatom 792 266 0 0 0 0 - - -;
#X obj 780 159 r release-vcf;
#X obj 473 221 + 1;
#X obj 473 288 * 1000;
#X floatatom 483 264 0 0 0 0 - - -;
#X obj 473 159 r decay-vcf;
#X obj 318 222 + 1;
#X obj 318 290 * 1000;
#X floatatom 328 266 0 0 0 0 - - -;
#X obj 318 158 r attack-vcf;
#X floatatom 318 201 5 0 10 0 - - -;
#X floatatom 473 200 5 0 10 0 - - -;
#X floatatom 780 202 5 0 10 0 - - -;
#X obj 625 158 r sustain-vcf;
#X floatatom 625 184 5 0 10 0 - - -;
#X obj 292 396 r eg;
#X obj 914 801 + 1;
#X obj 914 868 * 1000;
#X floatatom 926 845 0 0 0 0 - - -;
#X obj 618 801 + 1;
#X obj 618 868 * 1000;
#X floatatom 628 844 0 0 0 0 - - -;
#X obj 470 802 + 1;
#X obj 470 870 * 1000;
#X floatatom 480 846 0 0 0 0 - - -;
#X obj 470 738 r attack-vca;
#X obj 618 738 r decay-vca;
#X obj 766 740 r sustain-vca;
#X floatatom 470 781 5 0 10 0 - - -;
#X floatatom 618 781 5 0 10 0 - - -;
#X floatatom 914 782 5 0 10 0 - - -;
#X floatatom 766 762 5 0 10 0 - - -;
#X obj 470 891 max 1;
#X obj 618 889 max 1;
#X obj 914 889 max 1;
#X obj 318 244 tabread4 attack-vcf;
#X obj 473 244 tabread4 decay-vcf;
#X obj 780 245 tabread4 release-vcf;
#X obj 470 824 tabread4 attack-vca;
#X obj 618 824 tabread4 decay-vca;
#X obj 914 824 tabread4 release-vca;
#X obj 44 636 line~;
#X floatatom 54 614 0 0 0 0 - - -;
#X obj 44 570 + 1;
#X obj 44 507 r cutoff-vcf;
#X floatatom 44 550 5 0 10 0 - - -;
#X obj 44 593 tabread4 cutoff-vcf;
#X obj 117 833 r resonance-vcf;
#X floatatom 117 876 5 0 1 0 - - -;
#X obj 915 734 r release-vca;
#X obj 915 759 * 10;
#X obj 618 759 * 10;
#X obj 470 759 * 10;
#X obj 317 181 * 10;
#X obj 473 181 * 10;
#X obj 780 180 * 10;
#X obj 44 528 * 10;
#X msg 826 -60 10;
#X text 128 1125 nyquist * 0.75 (Aliasing nyquist filter);
#X text 105 1164 Distorsion to avoid saturation;
#X text 372 948 exponentiate curves;
#X msg 38 135 set noise;
#X obj 38 293 noise~;
#X msg 956 -128 ./triangle.txt triangle \, ./saw.txt saw \, ./shark.txt
shark \, ./square.txt square;
#X obj 954 23 table noise 100;
#X obj 13 360 *~;
#X msg 45 327 1;
#X msg 196 148 0;
#X obj -1 957 moog~, f 15;
#X obj -1 1143 *~ 0.5;
#X obj 117 916 sig~ 3;
#X floatatom -3 53 5 0 0 0 - - -;
#X obj -3 -128 unpack, f 19;
#X floatatom -3 -107 5 0 0 0 - - -;
#X obj -3 31 mtof;
#X obj -5 -153 r gui-keyboard;
#X floatatom 43 -72 5 0 0 0 - - -;
#X obj 43 -94 r octave;
#X obj -3 7 + 24;
#X obj 42 -51 * -12;
#X obj -1 -17 +;
#X obj 35 -24 r note-midi;
#X msg 93 1280 open loop.wav;
#X msg 35 1267 start;
#X msg 100 1324 stop;
#X obj 44 1350 writesf~;
#X obj 35 1224 r rec;
#X obj 101 1301 r recstop;
#X obj 35 1245 t b b;
#X obj 139 20 / 127, f 25;
#X obj 139 41 s trigger;
#X obj 177 -58 notein;
#X obj 155 -32 moses 1;
#X msg 286 -18 127;
#X obj 180 -2 r trigger-midi;
#X obj 157 -104 r trigger-midi;
#X obj 117 895 * 4;
#X connect 5 0 113 0;
#X connect 5 0 107 0;
#X connect 6 0 10 0;
#X connect 7 0 10 0;
#X connect 9 0 10 0;
#X connect 10 0 118 0;
#X connect 12 0 118 1;
#X connect 13 0 10 0;
#X connect 14 0 15 0;
#X connect 15 0 11 0;
#X connect 15 0 29 0;
#X connect 16 0 14 0;
#X connect 18 0 17 0;
#X connect 18 0 21 1;
#X connect 19 0 20 0;
#X connect 20 0 18 0;
#X connect 21 0 37 0;
#X connect 22 0 25 0;
#X connect 22 0 12 1;
#X connect 23 0 22 1;
#X connect 26 0 27 0;
#X connect 27 0 32 0;
#X connect 28 0 29 1;
#X connect 28 1 26 0;
#X connect 29 0 22 0;
#X connect 30 0 28 0;
#X connect 32 0 23 0;
#X connect 34 0 36 0;
#X connect 35 0 38 0;
#X connect 36 0 35 0;
#X connect 37 0 43 0;
#X connect 38 0 37 1;
#X connect 39 0 38 1;
#X connect 40 0 39 0;
#X connect 41 0 40 0;
#X connect 43 0 119 0;
#X connect 44 0 45 0;
#X connect 45 0 33 1;
#X connect 45 0 33 0;
#X connect 45 0 42 0;
#X connect 45 0 135 0;
#X connect 46 0 47 0;
#X connect 47 0 111 0;
#X connect 47 0 116 0;
#X connect 47 1 6 0;
#X connect 47 1 117 0;
#X connect 47 2 9 0;
#X connect 47 2 117 0;
#X connect 47 3 13 0;
#X connect 47 3 117 0;
#X connect 47 4 7 0;
#X connect 47 4 117 0;
#X connect 47 5 117 0;
#X connect 48 0 87 0;
#X connect 49 0 14 4;
#X connect 51 0 105 0;
#X connect 52 0 86 0;
#X connect 53 0 14 2;
#X connect 55 0 104 0;
#X connect 56 0 85 0;
#X connect 57 0 14 1;
#X connect 59 0 103 0;
#X connect 60 0 56 0;
#X connect 61 0 52 0;
#X connect 62 0 48 0;
#X connect 63 0 64 0;
#X connect 64 0 14 3;
#X connect 65 0 30 0;
#X connect 66 0 90 0;
#X connect 67 0 84 0;
#X connect 69 0 89 0;
#X connect 70 0 83 0;
#X connect 72 0 88 0;
#X connect 73 0 82 0;
#X connect 75 0 102 0;
#X connect 76 0 101 0;
#X connect 77 0 81 0;
#X connect 78 0 72 0;
#X connect 79 0 69 0;
#X connect 80 0 66 0;
#X connect 81 0 20 3;
#X connect 82 0 20 1;
#X connect 83 0 20 2;
#X connect 84 0 20 4;
#X connect 85 0 58 0;
#X connect 85 0 57 0;
#X connect 86 0 54 0;
#X connect 86 0 53 0;
#X connect 87 0 50 0;
#X connect 87 0 49 0;
#X connect 88 0 74 0;
#X connect 88 0 73 0;
#X connect 89 0 71 0;
#X connect 89 0 70 0;
#X connect 90 0 68 0;
#X connect 90 0 67 0;
#X connect 91 0 12 0;
#X connect 93 0 96 0;
#X connect 94 0 106 0;
#X connect 95 0 93 0;
#X connect 96 0 92 0;
#X connect 96 0 91 0;
#X connect 97 0 98 0;
#X connect 98 0 146 0;
#X connect 99 0 100 0;
#X connect 100 0 80 0;
#X connect 101 0 79 0;
#X connect 102 0 78 0;
#X connect 103 0 60 0;
#X connect 104 0 61 0;
#X connect 105 0 62 0;
#X connect 106 0 95 0;
#X connect 107 0 105 1;
#X connect 107 0 104 1;
#X connect 107 0 103 1;
#X connect 107 0 106 1;
#X connect 107 0 100 1;
#X connect 107 0 101 1;
#X connect 107 0 102 1;
#X connect 111 0 10 0;
#X connect 112 0 115 0;
#X connect 113 0 0 0;
#X connect 115 0 118 0;
#X connect 116 0 115 1;
#X connect 117 0 115 1;
#X connect 118 0 21 0;
#X connect 119 0 44 0;
#X connect 120 0 118 2;
#X connect 121 0 10 0;
#X connect 122 0 123 0;
#X connect 122 1 139 0;
#X connect 123 0 130 0;
#X connect 124 0 121 0;
#X connect 125 0 122 0;
#X connect 126 0 129 0;
#X connect 127 0 126 0;
#X connect 128 0 124 0;
#X connect 129 0 130 1;
#X connect 130 0 128 0;
#X connect 131 0 124 0;
#X connect 132 0 135 0;
#X connect 133 0 135 0;
#X connect 134 0 135 0;
#X connect 136 0 138 0;
#X connect 137 0 134 0;
#X connect 138 0 133 0;
#X connect 138 1 132 0;
#X connect 139 0 140 0;
#X connect 141 0 124 0;
#X connect 141 1 142 1;
#X connect 142 0 139 0;
#X connect 142 1 143 0;
#X connect 142 1 139 0;
#X connect 143 0 139 1;
#X connect 144 0 139 0;
#X connect 145 0 139 0;
#X connect 146 0 120 0;
#X restore 296 117 pd signal-flow;
#X obj 246 207 loadbang;
#X obj 51 202 loadbang;
#X text 49 182 initial parameters;
#X text 107 95 Knobs characterization curves;
#X text 214 116 Signal flow;
#X text 257 73 MIDI;
#X text 245 185 Audio DSP;
#X msg 51 224 \; init-select-waveform 1 \; init-cutoff-vcf 0.5 \; init-resonance-vcf
0.4 \; init-eg 0 \; init-attack-vca 0 \; init-decay-vca 0 \; init-sustain-vca
1 \; init-release-vca 0 \; init-attack-vcf 0 \; init-decay-vcf 0 \;
init-sustain-vcf 1 \; init-release-vcf 0 \; init-volume 0.85 \; init-octave
2;
#X connect 0 0 1 0;
#X connect 6 0 0 0;
#X connect 7 0 13 0;
#X restore 22 36 pd Moog;
#X obj 147 223 vradio 20 1 0 5 octave init-octave empty 0 -8 0 10 -75113
-258113 -1 2;
#X obj 102 274 cnv 15 10 10 empty empty OCTAVE 0 0 0 10 -99865 -262144
0;
#X connect 1 0 2 0;
